<?xml version="1.0" standalone="no"?>
<!DOCTYPE svg PUBLIC "-//W3C//DTD SVG 20010904//EN"
 "http://www.w3.org/TR/2001/REC-SVG-20010904/DTD/svg10.dtd">
<svg version="1.0" xmlns="http://www.w3.org/2000/svg"
 width="700.000000pt" height="700.000000pt" viewBox="0 0 700.000000 700.000000"
 preserveAspectRatio="xMidYMid meet">
<metadata>
Created by potrace 1.11, written by Peter Selinger 2001-2013
</metadata>
<g transform="translate(0.000000,700.000000) scale(0.100000,-0.100000)"
fill="#000000" stroke="none">
<path d="M3338 6805 c-1 -1 -40 -5 -84 -9 -74 -5 -136 -13 -259 -31 -76 -12
-297 -64 -398 -96 -415 -126 -840 -363 -1157 -644 -139 -123 -317 -313 -444
-475 -143 -182 -320 -499 -419 -750 -77 -194 -162 -504 -182 -665 -10 -83 -15
-119 -20 -140 -7 -31 -18 -261 -18 -360 0 -94 12 -336 18 -345 2 -3 6 -36 9
-75 4 -38 11 -86 16 -105 5 -19 12 -55 15 -80 16 -108 108 -428 160 -555 9
-22 24 -58 33 -80 22 -52 145 -296 179 -355 40 -70 189 -288 245 -360 228
-292 502 -534 853 -756 171 -107 465 -241 675 -306 139 -43 142 -45 175 -90
41 -54 163 -168 233 -216 52 -35 129 -75 222 -115 40 -17 143 -43 210 -52 56
-9 200 -8 254 0 23 4 53 8 67 11 47 7 183 55 244 86 134 67 237 150 355 284
42 48 52 53 150 84 359 110 730 306 1020 537 119 94 149 122 280 253 148 147
194 200 307 354 29 39 56 76 60 81 17 21 111 172 129 205 11 19 21 37 25 40
16 15 143 283 187 395 69 178 136 399 148 489 2 15 6 36 9 46 14 44 43 240 52
357 14 170 8 520 -11 653 -2 14 -7 48 -10 75 -3 28 -8 61 -11 75 -3 14 -8 39
-11 55 -3 17 -10 50 -15 75 -6 25 -13 56 -15 70 -12 68 -68 248 -120 389 -204
547 -602 1077 -1064 1415 -36 26 -72 53 -80 59 -26 21 -206 136 -252 161 -259
142 -505 242 -763 311 -105 28 -326 70 -425 80 -36 4 -78 9 -95 12 -35 5 -471
13 -477 8z"/>
</g>
</svg>
