<?xml version="1.0" encoding="utf-8"?>
<!-- Generator: Adobe Illustrator 16.0.0, SVG Export Plug-In . SVG Version: 6.00 Build 0)  -->
<!DOCTYPE svg PUBLIC "-//W3C//DTD SVG 1.1//EN" "http://www.w3.org/Graphics/SVG/1.1/DTD/svg11.dtd">
<svg version="1.1" id="Layer_1" xmlns="http://www.w3.org/2000/svg" xmlns:xlink="http://www.w3.org/1999/xlink" x="0px" y="0px"
	 width="256px" height="256px" viewBox="0 0 256 256" enable-background="new 0 0 256 256" xml:space="preserve">
<g display="none">
	<circle display="inline" fill="#FFEB3B" cx="129" cy="122.973" r="116"/>
	<path display="inline" opacity="0.6" enable-background="new    " d="M129,157.473c-26.306,0-51.038-3.099-72.579-8.543
		c5.826,32.938,36.093,58.043,72.579,58.043c36.486,0,66.753-25.105,72.579-58.043C180.038,154.374,155.307,157.473,129,157.473z"/>
	<g display="inline" opacity="0.6">
		<path d="M116.395,101.05c-1.528-1.978-3.834-3.334-6.919-4.072c3.928-2.003,5.653-5.402,5.18-10.2
			c-0.159-1.739-0.64-3.247-1.443-4.524c-0.805-1.277-1.891-2.308-3.262-3.082c-1.371-0.779-2.86-1.371-4.468-1.779
			c-1.607-0.409-3.453-0.705-5.535-0.889v-9.965h-6.087v9.687c-1.054,0-2.662,0.026-4.823,0.079v-9.766h-6.089v9.965
			c-0.87,0.024-2.148,0.039-3.835,0.039l-8.381-0.039v6.481h4.388c2.003,0,3.176,0.896,3.519,2.688V97.02
			c0.264,0,0.474,0.013,0.633,0.039H78.64v15.894c-0.21,1.344-0.975,2.016-2.293,2.016h-4.388l-1.226,7.236h7.907
			c0.501,0,1.225,0.006,2.174,0.018c0.949,0.014,1.66,0.021,2.134,0.021v10.08h6.09v-9.962c1.106,0.026,2.714,0.04,4.823,0.04v9.922
			h6.088v-10.08c2.162-0.105,4.078-0.303,5.751-0.595c1.674-0.289,3.276-0.744,4.804-1.362c1.528-0.619,2.806-1.393,3.833-2.313
			c1.029-0.923,1.878-2.097,2.551-3.521c0.671-1.423,1.1-3.07,1.284-4.941C118.517,105.848,117.923,103.026,116.395,101.05z
			 M89.155,83.419c0.184,0,0.705-0.008,1.562-0.021c0.857-0.013,1.568-0.025,2.135-0.039c0.566-0.014,1.331,0.02,2.293,0.1
			c0.962,0.078,1.772,0.186,2.431,0.316c0.658,0.131,1.384,0.35,2.174,0.65c0.792,0.305,1.423,0.673,1.897,1.105
			c0.475,0.436,0.877,0.99,1.206,1.662c0.33,0.672,0.495,1.443,0.495,2.313c0,0.738-0.119,1.41-0.355,2.019
			c-0.237,0.604-0.593,1.112-1.067,1.521c-0.474,0.41-0.963,0.767-1.463,1.068c-0.5,0.303-1.14,0.547-1.917,0.731
			c-0.777,0.184-1.456,0.329-2.035,0.434c-0.58,0.104-1.305,0.181-2.174,0.22c-0.87,0.039-1.529,0.064-1.977,0.078
			c-0.448,0.014-1.061,0.014-1.839,0c-0.777-0.014-1.232-0.021-1.364-0.021V83.419H89.155L89.155,83.419z M105.78,110.341
			c-0.25,0.604-0.573,1.135-0.968,1.582c-0.395,0.447-0.916,0.843-1.562,1.186c-0.645,0.344-1.272,0.619-1.878,0.83
			c-0.606,0.212-1.338,0.395-2.194,0.555c-0.858,0.158-1.608,0.27-2.255,0.334c-0.646,0.066-1.416,0.119-2.312,0.159
			c-0.896,0.038-1.595,0.06-2.095,0.06c-0.501,0-1.134-0.008-1.898-0.021c-0.764-0.012-1.252-0.019-1.462-0.019v-13.363
			c0.21,0,0.836-0.014,1.877-0.039c1.042-0.025,1.891-0.04,2.55-0.04s1.568,0.04,2.729,0.118c1.159,0.079,2.135,0.197,2.925,0.355
			c0.791,0.158,1.653,0.401,2.59,0.73c0.935,0.33,1.693,0.73,2.273,1.206s1.067,1.081,1.462,1.819
			c0.396,0.736,0.594,1.582,0.594,2.529C106.156,109.063,106.031,109.733,105.78,110.341z"/>
	</g>
	<g display="inline" opacity="0.6">
		<path d="M187.479,101.05c-1.526-1.978-3.834-3.334-6.918-4.072c3.928-2.003,5.652-5.402,5.181-10.2
			c-0.159-1.739-0.642-3.247-1.443-4.524c-0.805-1.277-1.891-2.308-3.262-3.082c-1.371-0.779-2.86-1.371-4.47-1.779
			c-1.605-0.409-3.452-0.705-5.534-0.889v-9.965h-6.087v9.687c-1.055,0-2.661,0.026-4.822,0.079v-9.766h-6.089v9.965
			c-0.87,0.024-2.147,0.039-3.836,0.039l-8.382-0.039v6.481h4.39c2.003,0,3.176,0.896,3.519,2.688V97.02
			c0.266,0,0.475,0.013,0.635,0.039h-0.635v15.894c-0.209,1.344-0.975,2.016-2.293,2.016h-4.388l-1.228,7.236h7.908
			c0.5,0,1.226,0.006,2.174,0.018c0.949,0.014,1.66,0.021,2.134,0.021v10.08h6.091v-9.962c1.105,0.026,2.714,0.04,4.822,0.04v9.922
			h6.089v-10.08c2.161-0.105,4.077-0.303,5.75-0.595c1.675-0.289,3.276-0.744,4.805-1.362c1.527-0.619,2.808-1.393,3.833-2.313
			c1.028-0.923,1.878-2.097,2.551-3.521c0.672-1.423,1.102-3.07,1.284-4.941C189.602,105.848,189.007,103.026,187.479,101.05z
			 M160.238,83.419c0.185,0,0.705-0.008,1.563-0.021c0.858-0.013,1.568-0.025,2.135-0.039c0.567-0.014,1.332,0.02,2.293,0.1
			c0.963,0.078,1.772,0.186,2.433,0.316c0.657,0.131,1.384,0.35,2.174,0.65c0.792,0.305,1.423,0.673,1.896,1.105
			c0.477,0.436,0.877,0.99,1.207,1.662c0.33,0.672,0.494,1.443,0.494,2.313c0,0.738-0.119,1.41-0.354,2.019
			c-0.236,0.604-0.593,1.112-1.065,1.521c-0.476,0.41-0.964,0.767-1.464,1.068c-0.5,0.303-1.141,0.547-1.917,0.731
			c-0.775,0.184-1.456,0.329-2.035,0.434c-0.58,0.104-1.305,0.181-2.174,0.22s-1.529,0.064-1.979,0.078
			c-0.446,0.014-1.061,0.014-1.838,0c-0.776-0.014-1.231-0.021-1.364-0.021V83.419H160.238L160.238,83.419z M176.863,110.341
			c-0.25,0.604-0.572,1.135-0.967,1.582c-0.396,0.447-0.916,0.843-1.563,1.186c-0.646,0.344-1.271,0.619-1.878,0.83
			c-0.605,0.212-1.339,0.395-2.193,0.555c-0.857,0.158-1.607,0.27-2.256,0.334c-0.646,0.066-1.416,0.119-2.313,0.159
			c-0.896,0.038-1.596,0.06-2.096,0.06s-1.134-0.008-1.897-0.021c-0.765-0.012-1.252-0.019-1.461-0.019v-13.363
			c0.209,0,0.836-0.014,1.877-0.039s1.891-0.04,2.55-0.04s1.566,0.04,2.729,0.118c1.158,0.079,2.135,0.197,2.924,0.355
			c0.791,0.158,1.654,0.401,2.591,0.73c0.937,0.33,1.692,0.73,2.272,1.206s1.067,1.081,1.463,1.819
			c0.396,0.736,0.594,1.582,0.594,2.529C177.24,109.063,177.115,109.733,176.863,110.341z"/>
	</g>
	<path display="inline" fill="#00C853" d="M128.891,165.118c-13.267,0-26.132-0.859-38.391-2.468v45.146v1.408
		c0.007,23.101,17.241,41.823,38.5,41.823s38.492-18.725,38.5-41.823v-1.548V162.62
		C155.175,164.247,142.236,165.118,128.891,165.118z"/>
	<g display="inline">
		<path fill="#FFFFFF" d="M145.943,205.639c-1.184-1.529-2.967-2.58-5.354-3.152c3.04-1.549,4.375-4.18,4.009-7.894
			c-0.123-1.346-0.494-2.514-1.117-3.502c-0.623-0.987-1.463-1.784-2.523-2.385c-1.061-0.604-2.215-1.063-3.458-1.377
			c-1.244-0.315-2.673-0.547-4.284-0.688v-7.711h-4.711v7.495c-0.815,0-2.06,0.021-3.732,0.062v-7.557h-4.712v7.711
			c-0.673,0.021-1.663,0.03-2.968,0.03l-6.486-0.03v5.018h3.396c1.55,0,2.458,0.693,2.723,2.08v8.781c0.204,0,0.367,0.01,0.49,0.028
			h-0.49v12.3c-0.163,1.041-0.754,1.561-1.774,1.561h-3.396l-0.949,5.6h6.119c0.388,0,0.948,0.006,1.683,0.016
			c0.735,0.011,1.285,0.017,1.652,0.017v7.801h4.712v-7.709c0.856,0.021,2.101,0.031,3.733,0.031v7.678h4.711v-7.801
			c1.673-0.082,3.156-0.233,4.451-0.459c1.296-0.226,2.534-0.576,3.718-1.056c1.182-0.479,2.172-1.077,2.967-1.791
			c0.797-0.713,1.453-1.621,1.976-2.723c0.521-1.104,0.853-2.377,0.993-3.826C147.586,209.352,147.127,207.167,145.943,205.639z
			 M124.864,191.995c0.143,0,0.546-0.007,1.208-0.019c0.664-0.01,1.214-0.021,1.652-0.029c0.438-0.012,1.03,0.015,1.775,0.076
			c0.745,0.061,1.37,0.144,1.881,0.246c0.509,0.101,1.071,0.271,1.683,0.504c0.612,0.232,1.103,0.521,1.467,0.854
			c0.369,0.338,0.681,0.768,0.935,1.287c0.255,0.52,0.384,1.115,0.384,1.789c0,0.57-0.093,1.09-0.275,1.563
			c-0.184,0.467-0.459,0.859-0.826,1.176c-0.366,0.316-0.744,0.595-1.131,0.828c-0.389,0.232-0.883,0.422-1.484,0.564
			s-1.127,0.254-1.574,0.336c-0.449,0.082-1.011,0.139-1.684,0.168c-0.673,0.031-1.184,0.053-1.53,0.063
			c-0.347,0.011-0.821,0.011-1.423,0c-0.602-0.01-0.953-0.018-1.056-0.018V191.995L124.864,191.995L124.864,191.995z
			 M137.729,212.829c-0.192,0.469-0.442,0.877-0.75,1.226c-0.306,0.346-0.707,0.649-1.207,0.916c-0.5,0.266-0.983,0.479-1.455,0.644
			c-0.469,0.163-1.034,0.306-1.696,0.429c-0.664,0.123-1.245,0.209-1.745,0.26c-0.5,0.053-1.098,0.094-1.79,0.123
			c-0.693,0.029-1.234,0.047-1.621,0.047c-0.388,0-0.878-0.008-1.469-0.018c-0.591-0.01-0.969-0.014-1.132-0.014v-10.344
			c0.163,0,0.647-0.011,1.453-0.029c0.806-0.021,1.463-0.031,1.974-0.031c0.51,0,1.213,0.031,2.11,0.092
			c0.896,0.063,1.651,0.152,2.265,0.275c0.61,0.123,1.278,0.313,2.004,0.564c0.726,0.256,1.312,0.565,1.759,0.934
			c0.449,0.369,0.826,0.838,1.131,1.41c0.309,0.567,0.461,1.223,0.461,1.957C138.021,211.839,137.923,212.357,137.729,212.829z"/>
	</g>
</g>
<g>
	<circle fill="#ABABAB" enable-background="new    " cx="129" cy="122.973" r="116"/>
	<g>
		<circle fill="#555555" enable-background="new    " cx="126.833" cy="181.331" r="17.959"/>
		<path fill="#555555" enable-background="new    " d="M109.233,111.342c0,0-13.96,10.235-27.733,10.235
			s-27.733-10.235-27.733-10.235c-2.25-1.002-3.449-0.212-3.449,2.206c0,12.074,13.96,21.861,31.183,21.861
			s31.183-9.787,31.183-21.861C112.683,111.13,111.483,110.339,109.233,111.342z"/>
		<path fill="#555555" enable-background="new    " d="M201.316,111.342c0,0-13.959,10.235-27.732,10.235
			s-27.732-10.235-27.732-10.235c-2.25-1.002-3.449-0.212-3.449,2.206c0,12.074,13.959,21.861,31.182,21.861
			c17.225,0,31.184-9.787,31.184-21.861C204.768,111.13,203.566,110.339,201.316,111.342z"/>
	</g>
</g>
</svg>
